<?xml version="1.0" encoding="iso-8859-1"?>
<!-- Uploaded to: SVG Repo, www.svgrepo.com, Generator: SVG Repo Mixer Tools -->
<!DOCTYPE svg PUBLIC "-//W3C//DTD SVG 1.1//EN" "http://www.w3.org/Graphics/SVG/1.1/DTD/svg11.dtd">
<svg fill="#000000" version="1.1" id="Capa_1" xmlns="http://www.w3.org/2000/svg" xmlns:xlink="http://www.w3.org/1999/xlink" 
	 width="800px" height="800px" viewBox="0 0 124.244 124.244"
	 xml:space="preserve">
<g>
	<path d="M49.265,12.855C49.265,5.754,55.02,0,62.122,0c7.101,0,12.854,5.755,12.854,12.855s-5.754,12.858-12.854,12.858
		C55.019,25.713,49.265,19.956,49.265,12.855z M109.668,37.847v48.551c0,1.002-0.813,1.813-1.815,1.813H74.058l-0.002,30.134
		c0,3.258-2.642,5.898-5.898,5.898c-3.258,0-5.897-2.643-5.897-5.898V88.212h-0.839v30.134c0,3.258-2.639,5.898-5.896,5.898
		c-3.259,0-5.899-2.641-5.899-5.898l-0.004-30.134H16.391c-1.002,0-1.815-0.813-1.815-1.813V37.847c0-1.002,0.813-1.814,1.815-1.814
		h12.811c0.397-0.499,0.986-0.953,1.76-1.436c2.278-1.425,5.255-0.771,6.756,1.436h11.395c0.803-4.944,5.212-8.488,9.874-9.603
		c0.01-0.004,0.021-0.004,0.031-0.008l3.104,3.261l3.201-3.225c4.633,1.136,9.01,4.656,9.81,9.574h16.301
		c1.502-2.206,4.477-2.859,6.758-1.436c0.772,0.482,1.361,0.937,1.76,1.436h7.902C108.855,36.032,109.668,36.845,109.668,37.847z
		 M61.213,36.032h1.815l-0.878-5.873h-0.059L61.213,36.032z M106.038,39.661h-5.854c-0.227,0.998-0.769,2.086-1.895,3.109
		c-0.957,0.869-2.156,1.296-3.355,1.296c-1.357,0-2.709-0.55-3.694-1.635c-0.728-0.801-1.142-1.772-1.259-2.771H39.169
		c-0.116,0.998-0.53,1.97-1.259,2.771c-0.984,1.085-2.339,1.635-3.695,1.635c-1.197,0-2.398-0.427-3.355-1.296
		c-1.126-1.024-1.668-2.111-1.894-3.109H18.206v44.922h87.832V39.661z"/>
</g>
</svg>